Coordinates
version=1
nRows=4
nColumns=63
inDegrees=yes

Units are S.I. units (second, meters, Newtons, ...)
If the header above contains a line with 'inDegrees', this indicates whether rotational values are in degrees (yes) or radians (no).

endheader
time	pelvis_tilt	pelvis_list	pelvis_rotation	pelvis_tx	pelvis_ty	pelvis_tz	hip_flexion_r	hip_adduction_r	hip_rotation_r	knee_angle_r	knee_angle_r_beta	ankle_angle_r	subtalar_angle_r	mtp_angle_r	hip_flexion_l	hip_adduction_l	hip_rotation_l	knee_angle_l	knee_angle_l_beta	ankle_angle_l	subtalar_angle_l	mtp_angle_l	L5_S1_Flex_Ext	L5_S1_Lat_Bending	L5_S1_axial_rotation	L4_L5_Flex_Ext	L4_L5_Lat_Bending	L4_L5_axial_rotation	L3_L4_Flex_Ext	L3_L4_Lat_Bending	L3_L4_axial_rotation	L2_L3_Flex_Ext	L2_L3_Lat_Bending	L2_L3_axial_rotation	L1_L2_Flex_Ext	L1_L2_Lat_Bending	L1_L2_axial_rotation	L1_T12_Flex_Ext	L1_T12_Lat_Bending	L1_T12_axial_rotation	Abs_r3	Abs_r2	Abs_r1	Abs_t1	Abs_t2	neck_flexion	neck_bending	neck_rotation	arm_flex_r	arm_add_r	arm_rot_r	elbow_flex_r	pro_sup_r	wrist_flex_r	wrist_dev_r	arm_flex_l	arm_add_l	arm_rot_l	elbow_flex_l	pro_sup_l	wrist_flex_l	wrist_dev_l
      7.50000000	    -51.24925724	     -3.45624551	     -3.96398295	     -0.35700329	      0.98706559	      0.02686407	    132.50712945	     -8.54246090	     -0.30441692	    118.29967570	      2.06471884	      8.36564381	     -5.92058899	      0.00000000	     93.44759119	     -8.25056487	      5.24408062	     48.93922167	      0.85415055	     -4.02048419	      2.05788216	      0.00000000	     -0.08690815	      0.75133257	      0.88831579	     -0.16139712	      0.99927232	      0.94383553	     -0.14278139	      1.82679001	      0.94383553	     -0.09932732	      1.82679001	      0.77727632	     -0.08070290	      1.53211738	      0.72175658	     -0.04965931	      1.16381415	      0.66623684	     -0.62077620	      8.49922430	      4.94054593	      0.00000000	      0.00000000	     -0.00000000	      0.00000000	     -0.00000000	     72.32950046	    -10.33037881	     13.64648449	     35.08355675	     30.54147856	      0.00000000	      5.00000014	     69.64946116	     -5.61734684	      2.08500874	     32.24402565	     35.69967962	      0.00000000	      5.00000014
      7.50800000	    -51.13487333	     -2.91633302	     -3.92086829	     -0.35644284	      0.98670723	      0.02722997	    133.42478601	     -8.18924888	      0.18160979	    118.17799553	      2.06259513	      8.38850008	     -5.93227248	      0.00000000	     92.82463607	     -8.51126033	      4.13855199	     49.31459952	      0.86070213	     -3.50489299	      2.76106495	      0.00000000	     -0.08396779	      0.67975356	      0.88608371	     -0.15593658	      0.90407223	      0.94146394	     -0.13795068	      1.65275280	      0.94146394	     -0.09596678	      1.65275280	      0.77532325	     -0.07797249	      1.38615345	      0.71994302	     -0.04797919	      1.05293826	      0.66456278	     -0.59977351	      7.68950818	      4.92813178	      0.00000000	      0.00000000	     -0.00000000	      0.00000000	     -0.00000000	     72.09406252	    -10.37173899	     13.99849275	     35.14214879	     30.47338550	      0.00000000	      5.00000014	     69.69938787	     -5.68897860	      2.19773421	     32.07200559	     35.62038146	      0.00000000	      5.00000014
      7.51700000	    -51.05313342	     -2.86739905	     -3.83160142	     -0.35599261	      0.98653641	      0.02707385	    134.04614831	     -8.16843619	      0.26668710	    117.84770267	      2.05683043	      8.52569395	     -5.88736727	      0.00000000	     92.42204491	     -8.53803986	      3.92620250	     49.81040727	      0.86935561	     -3.43655899	      2.85105763	      0.00000000	     -0.08375865	      0.67730575	      0.87355210	     -0.15554820	      0.90081665	      0.92814910	     -0.13760709	      1.64680120	      0.92814910	     -0.09572777	      1.64680120	      0.76435808	     -0.07777829	      1.38116188	      0.70976108	     -0.04785970	      1.04914661	      0.65516407	     -0.59827969	      7.66181809	      4.85843469	      0.00000000	      0.00000000	     -0.00000000	      0.00000000	     -0.00000000	     72.02191894	    -10.38656099	     14.02803042	     35.16943192	     30.46241921	      0.00000000	      5.00000014	     69.62450378	     -5.71506478	      2.26868450	     31.98206158	     35.61514019	      0.00000000	      5.00000014
      7.52500000	    -50.97514183	     -2.75603146	     -3.76512180	     -0.35562942	      0.98634423	      0.02697769	    134.59752700	     -8.06351708	      0.40417131	    117.39603111	      2.04894727	      8.64218840	     -5.80504582	      0.00000000	     92.05413069	     -8.58457250	      3.63614881	     50.35512605	      0.87886274	     -3.34306427	      2.93051574	      0.00000000	     -0.08224797	      0.66457103	      0.86267463	     -0.15274271	      0.88387947	      0.91659180	     -0.13512519	      1.61583801	      0.91659180	     -0.09400121	      1.61583801	      0.75484031	     -0.07637547	      1.35519325	      0.70092314	     -0.04699649	      1.02942053	      0.64700598	     -0.58748904	      7.51776044	      4.79793751	      0.00000000	      0.00000000	     -0.00000000	      0.00000000	     -0.00000000	     71.92173241	    -10.38737852	     14.07933834	     35.16700771	     30.45718009	      0.00000000	      5.00000014	     69.62325938	     -5.75055548	      2.33778883	     31.86101193	     35.61161558	      0.00000000	      5.00000014
